<?xml version="1.0" encoding="UTF-8"?>
<svg xmlns="http://www.w3.org/2000/svg" xmlns:xlink="http://www.w3.org/1999/xlink" width="1920" height="1080" viewBox="0 0 1920 1080">
<defs>
<g>
<g id="glyph-0-0">
<path d="M 1.125 -8.109375 C 1.039062 -8.390625 0.925781 -8.578125 0.78125 -8.671875 C 0.632812 -8.765625 0.429688 -8.8125 0.171875 -8.8125 L 0 -8.8125 L 0 -9.515625 L 4.453125 -9.515625 L 4.453125 -8.8125 L 4.140625 -8.8125 C 3.609375 -8.8125 3.34375 -8.597656 3.34375 -8.171875 C 3.34375 -8.097656 3.351562 -7.988281 3.375 -7.84375 C 3.40625 -7.707031 3.441406 -7.578125 3.484375 -7.453125 L 4.375 -4.375 C 4.445312 -4.144531 4.515625 -3.894531 4.578125 -3.625 C 4.648438 -3.351562 4.710938 -3.085938 4.765625 -2.828125 C 4.828125 -2.566406 4.867188 -2.335938 4.890625 -2.140625 C 4.953125 -2.429688 5.019531 -2.703125 5.09375 -2.953125 C 5.164062 -3.203125 5.238281 -3.457031 5.3125 -3.71875 L 7.078125 -9.421875 L 8.046875 -9.421875 L 9.890625 -4.328125 C 10.035156 -3.910156 10.164062 -3.492188 10.28125 -3.078125 C 10.40625 -2.671875 10.492188 -2.351562 10.546875 -2.125 C 10.617188 -2.4375 10.695312 -2.816406 10.78125 -3.265625 C 10.875 -3.710938 10.972656 -4.148438 11.078125 -4.578125 L 11.78125 -7.46875 C 11.8125 -7.570312 11.835938 -7.695312 11.859375 -7.84375 C 11.890625 -8 11.90625 -8.113281 11.90625 -8.1875 C 11.90625 -8.414062 11.832031 -8.578125 11.6875 -8.671875 C 11.550781 -8.765625 11.335938 -8.8125 11.046875 -8.8125 L 10.75 -8.8125 L 10.75 -9.515625 L 14.21875 -9.515625 L 14.21875 -8.8125 L 13.96875 -8.8125 C 13.707031 -8.8125 13.503906 -8.75 13.359375 -8.625 C 13.210938 -8.5 13.078125 -8.210938 12.953125 -7.765625 L 10.890625 0 L 9.375 0 L 7.125 -6.25 L 5.21875 0 L 3.5625 0 Z "/>
</g>
<g id="glyph-0-1">
<path d="M 4.0625 0.140625 C 3 0.140625 2.160156 -0.164062 1.546875 -0.78125 C 0.929688 -1.40625 0.625 -2.34375 0.625 -3.59375 C 0.625 -4.851562 0.914062 -5.785156 1.5 -6.390625 C 2.09375 -7.003906 2.960938 -7.3125 4.109375 -7.3125 C 5.171875 -7.3125 6.007812 -7.003906 6.625 -6.390625 C 7.238281 -5.785156 7.546875 -4.851562 7.546875 -3.59375 C 7.546875 -2.34375 7.25 -1.40625 6.65625 -0.78125 C 6.070312 -0.164062 5.207031 0.140625 4.0625 0.140625 Z M 4.09375 -0.703125 C 4.601562 -0.703125 4.960938 -0.945312 5.171875 -1.4375 C 5.378906 -1.9375 5.484375 -2.65625 5.484375 -3.59375 C 5.484375 -4.550781 5.375 -5.269531 5.15625 -5.75 C 4.945312 -6.226562 4.585938 -6.46875 4.078125 -6.46875 C 3.566406 -6.46875 3.207031 -6.226562 3 -5.75 C 2.789062 -5.269531 2.6875 -4.550781 2.6875 -3.59375 C 2.6875 -2.65625 2.789062 -1.9375 3 -1.4375 C 3.207031 -0.945312 3.570312 -0.703125 4.09375 -0.703125 Z "/>
</g>
<g id="glyph-0-2">
<path d="M 0.265625 0 L 0.265625 -0.703125 L 0.3125 -0.703125 C 0.613281 -0.703125 0.851562 -0.757812 1.03125 -0.875 C 1.21875 -0.988281 1.3125 -1.253906 1.3125 -1.671875 L 1.3125 -5.53125 C 1.3125 -5.925781 1.226562 -6.175781 1.0625 -6.28125 C 0.894531 -6.382812 0.664062 -6.4375 0.375 -6.4375 L 0.328125 -6.4375 L 0.328125 -7.140625 L 3 -7.140625 L 3.265625 -5.859375 L 3.328125 -5.859375 C 3.535156 -6.335938 3.78125 -6.695312 4.0625 -6.9375 C 4.34375 -7.175781 4.757812 -7.296875 5.3125 -7.296875 C 5.820312 -7.296875 6.191406 -7.1875 6.421875 -6.96875 C 6.648438 -6.757812 6.765625 -6.476562 6.765625 -6.125 C 6.765625 -5.71875 6.617188 -5.414062 6.328125 -5.21875 C 6.046875 -5.03125 5.640625 -4.9375 5.109375 -4.9375 C 5.109375 -5.300781 5.0625 -5.570312 4.96875 -5.75 C 4.882812 -5.9375 4.722656 -6.03125 4.484375 -6.03125 C 4.273438 -6.03125 4.101562 -5.953125 3.96875 -5.796875 C 3.832031 -5.648438 3.71875 -5.457031 3.625 -5.21875 C 3.53125 -4.976562 3.460938 -4.71875 3.421875 -4.4375 C 3.378906 -4.164062 3.359375 -3.898438 3.359375 -3.640625 L 3.359375 -1.59375 C 3.359375 -1.207031 3.445312 -0.960938 3.625 -0.859375 C 3.800781 -0.753906 4.023438 -0.703125 4.296875 -0.703125 L 4.71875 -0.703125 L 4.71875 0 Z "/>
</g>
<g id="glyph-0-3">
<path d="M 0.234375 0 L 0.234375 -0.703125 L 0.390625 -0.703125 C 0.515625 -0.703125 0.648438 -0.722656 0.796875 -0.765625 C 0.941406 -0.804688 1.066406 -0.882812 1.171875 -1 C 1.273438 -1.125 1.328125 -1.316406 1.328125 -1.578125 L 1.328125 -8.609375 C 1.328125 -8.847656 1.273438 -9.023438 1.171875 -9.140625 C 1.066406 -9.253906 0.941406 -9.328125 0.796875 -9.359375 C 0.648438 -9.398438 0.515625 -9.421875 0.390625 -9.421875 L 0.234375 -9.421875 L 0.234375 -10.125 L 3.359375 -10.125 L 3.359375 -5.03125 C 3.359375 -4.863281 3.351562 -4.675781 3.34375 -4.46875 C 3.34375 -4.269531 3.335938 -4.085938 3.328125 -3.921875 C 3.316406 -3.753906 3.304688 -3.644531 3.296875 -3.59375 L 4.96875 -5.484375 C 5.125 -5.648438 5.222656 -5.78125 5.265625 -5.875 C 5.304688 -5.976562 5.328125 -6.0625 5.328125 -6.125 C 5.328125 -6.363281 5.097656 -6.484375 4.640625 -6.484375 L 4.640625 -7.140625 L 8 -7.140625 L 8 -6.484375 C 7.695312 -6.484375 7.394531 -6.390625 7.09375 -6.203125 C 6.789062 -6.023438 6.46875 -5.738281 6.125 -5.34375 L 5.359375 -4.46875 L 7.125 -1.828125 C 7.363281 -1.460938 7.585938 -1.179688 7.796875 -0.984375 C 8.003906 -0.796875 8.21875 -0.703125 8.4375 -0.703125 L 8.484375 -0.703125 L 8.484375 0 L 8.296875 0 C 7.804688 0 7.394531 -0.015625 7.0625 -0.046875 C 6.738281 -0.0859375 6.460938 -0.15625 6.234375 -0.25 C 6.015625 -0.34375 5.816406 -0.476562 5.640625 -0.65625 C 5.472656 -0.84375 5.296875 -1.082031 5.109375 -1.375 L 3.984375 -3.15625 L 3.359375 -2.65625 L 3.359375 -1.578125 C 3.359375 -1.328125 3.410156 -1.140625 3.515625 -1.015625 C 3.617188 -0.890625 3.742188 -0.804688 3.890625 -0.765625 C 4.046875 -0.722656 4.1875 -0.703125 4.3125 -0.703125 L 4.46875 -0.703125 L 4.46875 0 Z "/>
</g>
<g id="glyph-0-4">
<path d="M 0.25 0 L 0.25 -0.703125 L 0.546875 -0.703125 C 0.679688 -0.703125 0.820312 -0.722656 0.96875 -0.765625 C 1.113281 -0.804688 1.238281 -0.890625 1.34375 -1.015625 C 1.445312 -1.140625 1.5 -1.328125 1.5 -1.578125 L 1.5 -6.234375 L 0.3125 -6.234375 L 0.3125 -7.140625 L 1.5 -7.140625 L 1.5 -7.21875 C 1.5 -8.175781 1.785156 -8.921875 2.359375 -9.453125 C 2.929688 -9.984375 3.84375 -10.25 5.09375 -10.25 C 5.65625 -10.25 6.140625 -10.207031 6.546875 -10.125 L 8.25 -10.125 L 8.25 -1.578125 C 8.25 -1.328125 8.300781 -1.140625 8.40625 -1.015625 C 8.507812 -0.890625 8.632812 -0.804688 8.78125 -0.765625 C 8.9375 -0.722656 9.078125 -0.703125 9.203125 -0.703125 L 9.359375 -0.703125 L 9.359375 0 L 5.25 0 L 5.25 -0.703125 L 5.28125 -0.703125 C 5.414062 -0.703125 5.554688 -0.722656 5.703125 -0.765625 C 5.847656 -0.804688 5.96875 -0.890625 6.0625 -1.015625 C 6.164062 -1.140625 6.21875 -1.328125 6.21875 -1.578125 L 6.21875 -7.84375 C 6.207031 -8.019531 6.148438 -8.238281 6.046875 -8.5 C 5.953125 -8.757812 5.800781 -8.988281 5.59375 -9.1875 C 5.394531 -9.382812 5.140625 -9.484375 4.828125 -9.484375 C 4.398438 -9.484375 4.070312 -9.34375 3.84375 -9.0625 C 3.625 -8.789062 3.515625 -8.363281 3.515625 -7.78125 L 3.515625 -7.140625 L 5.1875 -7.140625 L 5.1875 -6.234375 L 3.515625 -6.234375 L 3.515625 -1.578125 C 3.515625 -1.328125 3.566406 -1.140625 3.671875 -1.015625 C 3.773438 -0.890625 3.898438 -0.804688 4.046875 -0.765625 C 4.203125 -0.722656 4.34375 -0.703125 4.46875 -0.703125 L 4.6875 -0.703125 L 4.6875 0 Z "/>
</g>
<g id="glyph-0-5">
<path d="M 0.953125 -5.734375 C 0.847656 -6.003906 0.726562 -6.1875 0.59375 -6.28125 C 0.46875 -6.382812 0.273438 -6.4375 0.015625 -6.4375 L -0.046875 -6.4375 L -0.046875 -7.140625 L 3.890625 -7.140625 L 3.890625 -6.4375 L 3.71875 -6.4375 C 3.445312 -6.4375 3.242188 -6.394531 3.109375 -6.3125 C 2.984375 -6.238281 2.921875 -6.09375 2.921875 -5.875 C 2.921875 -5.800781 2.929688 -5.707031 2.953125 -5.59375 C 2.972656 -5.488281 3 -5.390625 3.03125 -5.296875 L 3.484375 -3.578125 C 3.566406 -3.253906 3.644531 -2.925781 3.71875 -2.59375 C 3.800781 -2.257812 3.859375 -1.988281 3.890625 -1.78125 L 3.9375 -1.78125 C 3.96875 -2 4.019531 -2.242188 4.09375 -2.515625 C 4.175781 -2.785156 4.265625 -3.039062 4.359375 -3.28125 L 5.71875 -7.078125 L 6.578125 -7.078125 L 7.875 -3.140625 C 7.945312 -2.921875 8.019531 -2.679688 8.09375 -2.421875 C 8.164062 -2.160156 8.207031 -1.941406 8.21875 -1.765625 L 8.28125 -1.765625 C 8.3125 -1.984375 8.351562 -2.203125 8.40625 -2.421875 C 8.46875 -2.648438 8.546875 -2.898438 8.640625 -3.171875 L 9.21875 -5.125 C 9.257812 -5.238281 9.289062 -5.359375 9.3125 -5.484375 C 9.332031 -5.609375 9.34375 -5.707031 9.34375 -5.78125 C 9.34375 -6.21875 9.050781 -6.4375 8.46875 -6.4375 L 8.375 -6.4375 L 8.375 -7.140625 L 11.421875 -7.140625 L 11.421875 -6.4375 L 11.25 -6.4375 C 10.988281 -6.4375 10.789062 -6.367188 10.65625 -6.234375 C 10.519531 -6.097656 10.382812 -5.816406 10.25 -5.390625 L 8.53125 0 L 7.09375 0 L 5.640625 -4.421875 L 4.109375 0 L 2.65625 0 Z "/>
</g>
</g>
</defs>
<g fill="rgb(100%, 100%, 100%)" fill-opacity="1">
<use xlink:href="#glyph-0-0" x="30" y="34.25293"/>
<use xlink:href="#glyph-0-1" x="43" y="34.25293"/>
<use xlink:href="#glyph-0-2" x="51" y="34.25293"/>
<use xlink:href="#glyph-0-3" x="58" y="34.25293"/>
<use xlink:href="#glyph-0-4" x="66" y="34.25293"/>
<use xlink:href="#glyph-0-1" x="76" y="34.25293"/>
<use xlink:href="#glyph-0-5" x="84" y="34.25293"/>
</g>
</svg>
