<?xml version="1.0" encoding="UTF-8"?>
<svg xmlns="http://www.w3.org/2000/svg" xmlns:xlink="http://www.w3.org/1999/xlink" width="1920" height="1080" viewBox="0 0 1920 1080">
<defs>
<g>
<g id="glyph-0-0">
<path d="M 0.046875 0 L 0.046875 -0.703125 L 0.21875 -0.703125 C 0.457031 -0.703125 0.65625 -0.765625 0.8125 -0.890625 C 0.96875 -1.015625 1.125 -1.273438 1.28125 -1.671875 L 4.171875 -9.515625 L 6.015625 -9.515625 L 8.84375 -1.515625 C 8.957031 -1.210938 9.09375 -1 9.25 -0.875 C 9.414062 -0.757812 9.625 -0.703125 9.875 -0.703125 L 10.03125 -0.703125 L 10.03125 0 L 5.640625 0 L 5.640625 -0.703125 L 6.078125 -0.703125 C 6.273438 -0.703125 6.429688 -0.738281 6.546875 -0.8125 C 6.671875 -0.894531 6.734375 -1.03125 6.734375 -1.21875 C 6.734375 -1.320312 6.71875 -1.425781 6.6875 -1.53125 C 6.664062 -1.632812 6.640625 -1.722656 6.609375 -1.796875 L 6.140625 -3.125 L 2.90625 -3.125 L 2.515625 -1.984375 C 2.484375 -1.878906 2.445312 -1.753906 2.40625 -1.609375 C 2.375 -1.460938 2.359375 -1.332031 2.359375 -1.21875 C 2.359375 -0.875 2.578125 -0.703125 3.015625 -0.703125 L 3.515625 -0.703125 L 3.515625 0 Z M 3.1875 -3.9375 L 5.875 -3.9375 L 5.09375 -6.390625 C 4.988281 -6.691406 4.890625 -6.992188 4.796875 -7.296875 C 4.710938 -7.597656 4.640625 -7.898438 4.578125 -8.203125 C 4.503906 -7.898438 4.425781 -7.609375 4.34375 -7.328125 C 4.257812 -7.054688 4.160156 -6.769531 4.046875 -6.46875 Z "/>
</g>
<g id="glyph-0-1">
<path d="M 3.515625 0.140625 C 2.742188 0.140625 2.175781 -0.0703125 1.8125 -0.5 C 1.457031 -0.9375 1.28125 -1.601562 1.28125 -2.5 L 1.28125 -5.484375 C 1.28125 -5.867188 1.210938 -6.125 1.078125 -6.25 C 0.941406 -6.375 0.710938 -6.4375 0.390625 -6.4375 L 0.34375 -6.4375 L 0.34375 -7.140625 L 3.3125 -7.140625 L 3.3125 -2.875 C 3.3125 -2.3125 3.378906 -1.859375 3.515625 -1.515625 C 3.660156 -1.171875 3.925781 -1 4.3125 -1 C 4.738281 -1 5.046875 -1.179688 5.234375 -1.546875 C 5.429688 -1.910156 5.53125 -2.40625 5.53125 -3.03125 L 5.53125 -5.578125 C 5.53125 -5.960938 5.445312 -6.203125 5.28125 -6.296875 C 5.113281 -6.390625 4.90625 -6.4375 4.65625 -6.4375 L 4.609375 -6.4375 L 4.609375 -7.140625 L 7.5625 -7.140625 L 7.5625 -1.546875 C 7.5625 -1.160156 7.644531 -0.921875 7.8125 -0.828125 C 7.976562 -0.742188 8.191406 -0.703125 8.453125 -0.703125 L 8.5625 -0.703125 L 8.5625 0 L 5.90625 0 L 5.609375 -0.953125 L 5.546875 -0.953125 C 5.316406 -0.566406 5.035156 -0.285156 4.703125 -0.109375 C 4.367188 0.0546875 3.972656 0.140625 3.515625 0.140625 Z "/>
</g>
<g id="glyph-0-2">
<path d="M 3.390625 0.140625 C 2.703125 0.140625 2.175781 -0.015625 1.8125 -0.328125 C 1.457031 -0.640625 1.28125 -1.1875 1.28125 -1.96875 L 1.28125 -6.234375 L 0.28125 -6.234375 L 0.28125 -6.921875 C 0.5625 -6.921875 0.816406 -6.972656 1.046875 -7.078125 C 1.273438 -7.191406 1.457031 -7.328125 1.59375 -7.484375 C 1.863281 -7.773438 2.066406 -8.210938 2.203125 -8.796875 L 3.3125 -8.796875 L 3.3125 -7.140625 L 5.015625 -7.140625 L 5.015625 -6.234375 L 3.3125 -6.234375 L 3.3125 -2.109375 C 3.3125 -1.703125 3.378906 -1.40625 3.515625 -1.21875 C 3.648438 -1.039062 3.875 -0.953125 4.1875 -0.953125 C 4.363281 -0.953125 4.53125 -0.960938 4.6875 -0.984375 C 4.851562 -1.003906 5 -1.03125 5.125 -1.0625 L 5.125 -0.203125 C 4.988281 -0.140625 4.765625 -0.0664062 4.453125 0.015625 C 4.148438 0.0976562 3.796875 0.140625 3.390625 0.140625 Z "/>
</g>
<g id="glyph-0-3">
<path d="M 0.265625 0 L 0.265625 -0.703125 L 0.328125 -0.703125 C 0.617188 -0.703125 0.859375 -0.753906 1.046875 -0.859375 C 1.234375 -0.972656 1.328125 -1.226562 1.328125 -1.625 L 1.328125 -8.609375 C 1.328125 -8.847656 1.273438 -9.023438 1.171875 -9.140625 C 1.066406 -9.253906 0.941406 -9.328125 0.796875 -9.359375 C 0.648438 -9.398438 0.515625 -9.421875 0.390625 -9.421875 L 0.234375 -9.421875 L 0.234375 -10.125 L 3.359375 -10.125 L 3.359375 -7.84375 C 3.359375 -7.519531 3.347656 -7.207031 3.328125 -6.90625 C 3.316406 -6.601562 3.3125 -6.378906 3.3125 -6.234375 L 3.40625 -6.234375 C 3.582031 -6.546875 3.820312 -6.800781 4.125 -7 C 4.425781 -7.207031 4.84375 -7.3125 5.375 -7.3125 C 6.113281 -7.3125 6.671875 -7.109375 7.046875 -6.703125 C 7.421875 -6.296875 7.609375 -5.644531 7.609375 -4.75 L 7.609375 -1.65625 C 7.609375 -1.238281 7.679688 -0.972656 7.828125 -0.859375 C 7.972656 -0.753906 8.195312 -0.703125 8.5 -0.703125 L 8.546875 -0.703125 L 8.546875 0 L 5.578125 0 L 5.578125 -4.390625 C 5.578125 -4.953125 5.5 -5.390625 5.34375 -5.703125 C 5.1875 -6.023438 4.910156 -6.1875 4.515625 -6.1875 C 4.222656 -6.1875 3.992188 -6.085938 3.828125 -5.890625 C 3.660156 -5.703125 3.539062 -5.453125 3.46875 -5.140625 C 3.40625 -4.828125 3.375 -4.488281 3.375 -4.125 L 3.375 -1.578125 C 3.375 -1.203125 3.453125 -0.960938 3.609375 -0.859375 C 3.773438 -0.753906 4.007812 -0.703125 4.3125 -0.703125 L 4.359375 -0.703125 L 4.359375 0 Z "/>
</g>
<g id="glyph-0-4">
<path d="M 1.953125 0.109375 C 1.648438 0.109375 1.390625 0.0273438 1.171875 -0.125 C 0.960938 -0.28125 0.859375 -0.554688 0.859375 -0.953125 C 0.859375 -1.367188 0.960938 -1.648438 1.171875 -1.796875 C 1.390625 -1.953125 1.648438 -2.03125 1.953125 -2.03125 C 2.253906 -2.03125 2.507812 -1.953125 2.71875 -1.796875 C 2.9375 -1.648438 3.046875 -1.367188 3.046875 -0.953125 C 3.046875 -0.554688 2.9375 -0.28125 2.71875 -0.125 C 2.507812 0.0273438 2.253906 0.109375 1.953125 0.109375 Z "/>
</g>
<g id="glyph-0-5">
<path d="M 2.296875 -8.34375 C 1.972656 -8.34375 1.703125 -8.421875 1.484375 -8.578125 C 1.265625 -8.734375 1.15625 -8.972656 1.15625 -9.296875 C 1.15625 -9.640625 1.265625 -9.882812 1.484375 -10.03125 C 1.703125 -10.1875 1.972656 -10.265625 2.296875 -10.265625 C 2.609375 -10.265625 2.875 -10.1875 3.09375 -10.03125 C 3.320312 -9.882812 3.4375 -9.640625 3.4375 -9.296875 C 3.4375 -8.972656 3.320312 -8.734375 3.09375 -8.578125 C 2.875 -8.421875 2.609375 -8.34375 2.296875 -8.34375 Z M -0.265625 3.203125 L -0.265625 2.375 L -0.171875 2.375 C 0.316406 2.375 0.6875 2.203125 0.9375 1.859375 C 1.195312 1.523438 1.328125 0.90625 1.328125 0 L 1.328125 -5.5625 C 1.328125 -5.9375 1.222656 -6.175781 1.015625 -6.28125 C 0.804688 -6.382812 0.5625 -6.4375 0.28125 -6.4375 L 0.234375 -6.4375 L 0.234375 -7.140625 L 3.359375 -7.140625 L 3.359375 0.109375 C 3.359375 0.898438 3.210938 1.519531 2.921875 1.96875 C 2.640625 2.425781 2.242188 2.742188 1.734375 2.921875 C 1.234375 3.109375 0.65625 3.203125 0 3.203125 Z "/>
</g>
<g id="glyph-0-6">
<path d="M 3.046875 0.140625 C 2.128906 0.140625 1.460938 0 1.046875 -0.28125 C 0.640625 -0.5625 0.4375 -0.929688 0.4375 -1.390625 C 0.4375 -1.765625 0.554688 -2.019531 0.796875 -2.15625 C 1.046875 -2.300781 1.316406 -2.375 1.609375 -2.375 C 1.609375 -1.25 2.109375 -0.6875 3.109375 -0.6875 C 3.554688 -0.6875 3.878906 -0.773438 4.078125 -0.953125 C 4.285156 -1.128906 4.390625 -1.351562 4.390625 -1.625 C 4.390625 -1.90625 4.269531 -2.128906 4.03125 -2.296875 C 3.789062 -2.460938 3.375 -2.648438 2.78125 -2.859375 C 2.28125 -3.035156 1.863281 -3.21875 1.53125 -3.40625 C 1.195312 -3.601562 0.945312 -3.84375 0.78125 -4.125 C 0.613281 -4.40625 0.53125 -4.757812 0.53125 -5.1875 C 0.53125 -5.894531 0.789062 -6.421875 1.3125 -6.765625 C 1.84375 -7.117188 2.539062 -7.296875 3.40625 -7.296875 C 4.195312 -7.296875 4.769531 -7.164062 5.125 -6.90625 C 5.488281 -6.644531 5.671875 -6.351562 5.671875 -6.03125 C 5.671875 -5.4375 5.257812 -5.140625 4.4375 -5.140625 C 4.4375 -5.578125 4.320312 -5.914062 4.09375 -6.15625 C 3.875 -6.394531 3.578125 -6.515625 3.203125 -6.515625 C 2.847656 -6.515625 2.578125 -6.441406 2.390625 -6.296875 C 2.210938 -6.148438 2.125 -5.945312 2.125 -5.6875 C 2.125 -5.394531 2.238281 -5.164062 2.46875 -5 C 2.707031 -4.84375 3.128906 -4.660156 3.734375 -4.453125 C 4.210938 -4.296875 4.617188 -4.117188 4.953125 -3.921875 C 5.285156 -3.734375 5.535156 -3.5 5.703125 -3.21875 C 5.878906 -2.945312 5.96875 -2.597656 5.96875 -2.171875 C 5.96875 -1.453125 5.710938 -0.882812 5.203125 -0.46875 C 4.703125 -0.0625 3.984375 0.140625 3.046875 0.140625 Z "/>
</g>
</g>
</defs>
<g fill="rgb(100%, 100%, 100%)" fill-opacity="1">
<use xlink:href="#glyph-0-0" x="30" y="34.25293"/>
<use xlink:href="#glyph-0-1" x="40" y="34.25293"/>
<use xlink:href="#glyph-0-2" x="49" y="34.25293"/>
<use xlink:href="#glyph-0-3" x="54" y="34.25293"/>
<use xlink:href="#glyph-0-4" x="63" y="34.25293"/>
<use xlink:href="#glyph-0-5" x="67" y="34.25293"/>
<use xlink:href="#glyph-0-6" x="72" y="34.25293"/>
</g>
</svg>
