<?xml version="1.0" encoding="UTF-8"?>
<svg xmlns="http://www.w3.org/2000/svg" xmlns:xlink="http://www.w3.org/1999/xlink" width="1920" height="1080" viewBox="0 0 1920 1080">
<defs>
<g>
<g id="glyph-0-0">
<path d="M 13.144531 0 L 8.136719 0 L 8.136719 -0.507812 C 8.285156 -0.519531 8.46875 -0.542969 8.679688 -0.574219 C 8.898438 -0.601562 9.042969 -0.636719 9.121094 -0.671875 C 9.28125 -0.734375 9.398438 -0.824219 9.464844 -0.9375 C 9.535156 -1.050781 9.570312 -1.195312 9.570312 -1.367188 L 9.570312 -8.269531 L 6.394531 -0.148438 L 5.574219 -0.148438 C 5.535156 -0.292969 5.4375 -0.578125 5.28125 -1.003906 C 5.128906 -1.429688 5.003906 -1.769531 4.910156 -2.023438 L 2.570312 -8.371094 L 2.570312 -2.753906 C 2.570312 -2.214844 2.605469 -1.804688 2.679688 -1.527344 C 2.75 -1.246094 2.867188 -1.042969 3.027344 -0.910156 C 3.136719 -0.820312 3.328125 -0.734375 3.609375 -0.652344 C 3.890625 -0.570312 4.085938 -0.519531 4.199219 -0.507812 L 4.199219 0 L 0.226562 0 L 0.226562 -0.507812 C 0.335938 -0.519531 0.511719 -0.550781 0.757812 -0.59375 C 1.003906 -0.640625 1.203125 -0.71875 1.359375 -0.832031 C 1.535156 -0.953125 1.652344 -1.160156 1.710938 -1.449219 C 1.773438 -1.738281 1.804688 -2.148438 1.804688 -2.683594 L 1.804688 -7.257812 C 1.804688 -7.535156 1.769531 -7.769531 1.699219 -7.953125 C 1.628906 -8.136719 1.527344 -8.285156 1.386719 -8.390625 C 1.214844 -8.527344 1.035156 -8.613281 0.851562 -8.652344 C 0.671875 -8.691406 0.484375 -8.71875 0.300781 -8.730469 L 0.300781 -9.238281 L 4.554688 -9.238281 L 6.832031 -3.152344 L 8.753906 -8.089844 C 8.816406 -8.273438 8.882812 -8.492188 8.941406 -8.742188 C 9.003906 -8.996094 9.035156 -9.160156 9.039062 -9.238281 L 13.132812 -9.238281 L 13.132812 -8.730469 C 12.992188 -8.722656 12.847656 -8.703125 12.695312 -8.679688 C 12.542969 -8.652344 12.398438 -8.617188 12.257812 -8.574219 C 12.089844 -8.519531 11.976562 -8.429688 11.921875 -8.308594 C 11.871094 -8.1875 11.84375 -8.050781 11.84375 -7.902344 L 11.84375 -1.359375 C 11.84375 -1.203125 11.871094 -1.074219 11.921875 -0.964844 C 11.976562 -0.859375 12.089844 -0.769531 12.257812 -0.691406 C 12.347656 -0.652344 12.488281 -0.613281 12.683594 -0.578125 C 12.882812 -0.542969 13.035156 -0.519531 13.144531 -0.507812 Z "/>
</g>
<g id="glyph-0-1">
<path d="M 7.023438 -5.691406 C 7.347656 -5.390625 7.589844 -5.03125 7.761719 -4.617188 C 7.929688 -4.199219 8.015625 -3.746094 8.015625 -3.261719 C 8.015625 -2.78125 7.929688 -2.324219 7.761719 -1.898438 C 7.597656 -1.46875 7.351562 -1.105469 7.03125 -0.800781 C 6.6875 -0.476562 6.277344 -0.226562 5.804688 -0.0507812 C 5.328125 0.121094 4.785156 0.207031 4.171875 0.207031 C 3.644531 0.207031 3.15625 0.132812 2.710938 -0.0195312 C 2.265625 -0.171875 1.871094 -0.398438 1.53125 -0.703125 C 1.199219 -0.992188 0.941406 -1.351562 0.75 -1.78125 C 0.558594 -2.207031 0.460938 -2.6875 0.460938 -3.214844 C 0.460938 -3.738281 0.546875 -4.199219 0.710938 -4.605469 C 0.878906 -5.011719 1.128906 -5.375 1.464844 -5.691406 C 1.785156 -5.992188 2.183594 -6.230469 2.652344 -6.394531 C 3.125 -6.5625 3.648438 -6.648438 4.230469 -6.648438 C 4.839844 -6.648438 5.375 -6.5625 5.835938 -6.394531 C 6.296875 -6.230469 6.695312 -5.992188 7.023438 -5.691406 M 5.359375 -1.179688 C 5.453125 -1.421875 5.523438 -1.714844 5.570312 -2.0625 C 5.613281 -2.410156 5.636719 -2.816406 5.636719 -3.273438 C 5.636719 -3.578125 5.617188 -3.925781 5.574219 -4.316406 C 5.53125 -4.707031 5.464844 -5.015625 5.378906 -5.242188 C 5.273438 -5.515625 5.128906 -5.730469 4.945312 -5.886719 C 4.761719 -6.042969 4.527344 -6.121094 4.246094 -6.121094 C 3.9375 -6.121094 3.691406 -6.035156 3.503906 -5.867188 C 3.320312 -5.695312 3.179688 -5.476562 3.078125 -5.207031 C 2.988281 -4.960938 2.925781 -4.671875 2.890625 -4.339844 C 2.855469 -4.007812 2.839844 -3.660156 2.839844 -3.300781 C 2.839844 -2.828125 2.855469 -2.4375 2.882812 -2.125 C 2.914062 -1.816406 2.988281 -1.503906 3.105469 -1.191406 C 3.207031 -0.921875 3.347656 -0.710938 3.535156 -0.554688 C 3.722656 -0.398438 3.957031 -0.320312 4.246094 -0.320312 C 4.503906 -0.320312 4.730469 -0.390625 4.914062 -0.539062 C 5.101562 -0.683594 5.25 -0.894531 5.359375 -1.179688 Z "/>
</g>
<g id="glyph-0-2">
<path d="M 8.972656 0 L 5.058594 0 L 5.058594 -0.476562 C 5.140625 -0.484375 5.242188 -0.496094 5.359375 -0.507812 C 5.476562 -0.519531 5.5625 -0.542969 5.625 -0.574219 C 5.714844 -0.621094 5.78125 -0.691406 5.820312 -0.78125 C 5.859375 -0.871094 5.878906 -1.007812 5.878906 -1.183594 L 5.878906 -4.230469 C 5.878906 -4.675781 5.796875 -5.007812 5.632812 -5.230469 C 5.472656 -5.453125 5.230469 -5.566406 4.914062 -5.566406 C 4.738281 -5.566406 4.578125 -5.539062 4.425781 -5.488281 C 4.277344 -5.4375 4.128906 -5.359375 3.984375 -5.261719 C 3.859375 -5.171875 3.757812 -5.085938 3.683594 -4.992188 C 3.605469 -4.902344 3.542969 -4.820312 3.488281 -4.753906 L 3.488281 -1.257812 C 3.488281 -1.105469 3.511719 -0.976562 3.554688 -0.875 C 3.597656 -0.773438 3.667969 -0.695312 3.769531 -0.644531 C 3.839844 -0.605469 3.925781 -0.570312 4.03125 -0.539062 C 4.132812 -0.511719 4.234375 -0.488281 4.335938 -0.476562 L 4.335938 0 L 0.378906 0 L 0.378906 -0.476562 C 0.484375 -0.484375 0.59375 -0.496094 0.707031 -0.511719 C 0.816406 -0.527344 0.910156 -0.546875 0.988281 -0.574219 C 1.128906 -0.621094 1.222656 -0.695312 1.277344 -0.792969 C 1.328125 -0.894531 1.355469 -1.023438 1.355469 -1.183594 L 1.355469 -4.972656 C 1.355469 -5.109375 1.320312 -5.242188 1.25 -5.371094 C 1.179688 -5.5 1.089844 -5.609375 0.976562 -5.691406 C 0.898438 -5.742188 0.800781 -5.785156 0.679688 -5.820312 C 0.5625 -5.855469 0.429688 -5.878906 0.285156 -5.890625 L 0.285156 -6.367188 L 3.390625 -6.535156 L 3.488281 -6.4375 L 3.488281 -5.496094 L 3.515625 -5.496094 C 3.636719 -5.601562 3.785156 -5.734375 3.957031 -5.886719 C 4.132812 -6.039062 4.292969 -6.160156 4.441406 -6.257812 C 4.601562 -6.359375 4.8125 -6.449219 5.070312 -6.523438 C 5.332031 -6.597656 5.609375 -6.632812 5.90625 -6.632812 C 6.613281 -6.632812 7.144531 -6.433594 7.496094 -6.03125 C 7.851562 -5.628906 8.027344 -5.097656 8.027344 -4.433594 L 8.027344 -1.242188 C 8.027344 -1.082031 8.050781 -0.953125 8.097656 -0.859375 C 8.148438 -0.765625 8.234375 -0.6875 8.367188 -0.632812 C 8.433594 -0.601562 8.519531 -0.570312 8.625 -0.539062 C 8.726562 -0.511719 8.839844 -0.488281 8.972656 -0.476562 Z "/>
</g>
<g id="glyph-0-3">
<path d="M 7.667969 -5.730469 L 6.238281 -5.730469 C 6.40625 -5.539062 6.53125 -5.339844 6.617188 -5.125 C 6.703125 -4.914062 6.746094 -4.695312 6.746094 -4.464844 C 6.746094 -4.167969 6.664062 -3.886719 6.503906 -3.621094 C 6.34375 -3.359375 6.132812 -3.148438 5.871094 -2.980469 C 5.609375 -2.8125 5.296875 -2.679688 4.941406 -2.585938 C 4.585938 -2.488281 4.199219 -2.441406 3.78125 -2.441406 L 2.722656 -2.441406 C 2.667969 -2.402344 2.613281 -2.339844 2.546875 -2.253906 C 2.484375 -2.167969 2.453125 -2.085938 2.453125 -2.007812 C 2.453125 -1.816406 2.53125 -1.683594 2.683594 -1.609375 C 2.835938 -1.535156 3.109375 -1.492188 3.507812 -1.484375 C 3.902344 -1.476562 4.304688 -1.460938 4.707031 -1.433594 C 5.109375 -1.410156 5.398438 -1.398438 5.574219 -1.394531 C 5.824219 -1.378906 6.074219 -1.328125 6.320312 -1.242188 C 6.570312 -1.152344 6.785156 -1.035156 6.964844 -0.890625 C 7.164062 -0.738281 7.332031 -0.546875 7.460938 -0.308594 C 7.589844 -0.0742188 7.65625 0.199219 7.65625 0.507812 C 7.65625 0.835938 7.578125 1.148438 7.417969 1.4375 C 7.261719 1.730469 7.019531 1.980469 6.691406 2.195312 C 6.351562 2.414062 5.9375 2.585938 5.457031 2.707031 C 4.980469 2.828125 4.386719 2.890625 3.679688 2.890625 C 2.535156 2.890625 1.667969 2.75 1.074219 2.472656 C 0.480469 2.195312 0.183594 1.78125 0.183594 1.222656 C 0.183594 0.882812 0.34375 0.597656 0.664062 0.378906 C 0.984375 0.15625 1.484375 0.0351562 2.160156 0.0117188 L 2.160156 -0.0664062 C 1.761719 -0.199219 1.449219 -0.378906 1.226562 -0.605469 C 1.003906 -0.828125 0.890625 -1.085938 0.890625 -1.382812 C 0.890625 -1.566406 0.9375 -1.722656 1.023438 -1.847656 C 1.113281 -1.972656 1.226562 -2.085938 1.367188 -2.179688 C 1.488281 -2.261719 1.636719 -2.332031 1.808594 -2.390625 C 1.984375 -2.449219 2.128906 -2.496094 2.246094 -2.53125 L 2.246094 -2.605469 C 1.660156 -2.820312 1.230469 -3.085938 0.953125 -3.398438 C 0.679688 -3.710938 0.539062 -4.09375 0.539062 -4.542969 C 0.539062 -5.183594 0.835938 -5.691406 1.421875 -6.074219 C 2.011719 -6.457031 2.757812 -6.648438 3.660156 -6.648438 C 3.953125 -6.648438 4.238281 -6.621094 4.515625 -6.570312 C 4.789062 -6.523438 5 -6.476562 5.144531 -6.4375 L 7.667969 -6.4375 L 7.667969 -5.730469 M 4.617188 -4.492188 C 4.617188 -5 4.535156 -5.402344 4.375 -5.695312 C 4.214844 -5.992188 3.964844 -6.140625 3.628906 -6.140625 C 3.460938 -6.140625 3.3125 -6.097656 3.183594 -6.019531 C 3.058594 -5.9375 2.957031 -5.824219 2.878906 -5.671875 C 2.804688 -5.523438 2.753906 -5.351562 2.726562 -5.152344 C 2.703125 -4.957031 2.6875 -4.753906 2.6875 -4.542969 C 2.6875 -4.070312 2.773438 -3.683594 2.9375 -3.378906 C 3.101562 -3.074219 3.335938 -2.921875 3.640625 -2.921875 C 3.957031 -2.921875 4.195312 -3.058594 4.363281 -3.332031 C 4.53125 -3.605469 4.617188 -3.992188 4.617188 -4.492188 M 5.703125 0.984375 C 5.703125 0.835938 5.660156 0.6875 5.578125 0.542969 C 5.496094 0.398438 5.3125 0.28125 5.027344 0.1875 C 4.871094 0.164062 4.613281 0.144531 4.257812 0.136719 C 3.898438 0.128906 3.410156 0.125 2.785156 0.125 C 2.632812 0.253906 2.507812 0.40625 2.40625 0.585938 C 2.304688 0.765625 2.253906 0.980469 2.253906 1.230469 C 2.253906 1.339844 2.28125 1.457031 2.34375 1.589844 C 2.402344 1.71875 2.5 1.839844 2.628906 1.953125 C 2.78125 2.078125 2.949219 2.179688 3.136719 2.25 C 3.324219 2.320312 3.605469 2.355469 3.980469 2.355469 C 4.539062 2.355469 4.964844 2.25 5.261719 2.03125 C 5.554688 1.8125 5.703125 1.464844 5.703125 0.984375 Z "/>
</g>
<g id="glyph-0-4">
<path d="M 8.769531 -8.289062 C 9.332031 -7.917969 9.789062 -7.425781 10.136719 -6.8125 C 10.484375 -6.199219 10.65625 -5.445312 10.65625 -4.558594 C 10.65625 -3.777344 10.503906 -3.09375 10.191406 -2.515625 C 9.882812 -1.9375 9.46875 -1.460938 8.957031 -1.09375 C 8.4375 -0.726562 7.847656 -0.449219 7.183594 -0.269531 C 6.523438 -0.0898438 5.828125 0 5.105469 0 L 0.449219 0 L 0.449219 -0.507812 C 0.589844 -0.511719 0.761719 -0.523438 0.96875 -0.546875 C 1.179688 -0.570312 1.316406 -0.59375 1.386719 -0.625 C 1.542969 -0.691406 1.652344 -0.777344 1.710938 -0.886719 C 1.773438 -1 1.804688 -1.132812 1.804688 -1.289062 L 1.804688 -7.839844 C 1.804688 -7.984375 1.773438 -8.121094 1.71875 -8.238281 C 1.664062 -8.359375 1.550781 -8.453125 1.386719 -8.527344 C 1.222656 -8.601562 1.046875 -8.652344 0.863281 -8.679688 C 0.679688 -8.703125 0.535156 -8.722656 0.4375 -8.730469 L 0.4375 -9.238281 L 5.351562 -9.238281 C 5.875 -9.238281 6.4375 -9.171875 7.039062 -9.035156 C 7.636719 -8.902344 8.214844 -8.652344 8.769531 -8.289062 M 7.441406 -1.667969 C 7.652344 -2.015625 7.808594 -2.425781 7.90625 -2.90625 C 8.003906 -3.386719 8.054688 -3.9375 8.054688 -4.5625 C 8.054688 -5.175781 7.988281 -5.734375 7.859375 -6.238281 C 7.726562 -6.742188 7.535156 -7.171875 7.285156 -7.527344 C 7.035156 -7.882812 6.71875 -8.15625 6.34375 -8.351562 C 5.96875 -8.546875 5.542969 -8.644531 5.066406 -8.644531 C 4.914062 -8.644531 4.742188 -8.640625 4.546875 -8.636719 C 4.355469 -8.628906 4.210938 -8.625 4.113281 -8.621094 L 4.113281 -1.609375 C 4.113281 -1.453125 4.136719 -1.3125 4.175781 -1.195312 C 4.21875 -1.074219 4.289062 -0.96875 4.386719 -0.878906 C 4.488281 -0.789062 4.609375 -0.71875 4.757812 -0.667969 C 4.902344 -0.617188 5.089844 -0.59375 5.324219 -0.59375 C 5.816406 -0.59375 6.238281 -0.683594 6.589844 -0.867188 C 6.941406 -1.046875 7.222656 -1.316406 7.441406 -1.667969 Z "/>
</g>
<g id="glyph-0-5">
<path d="M 8.605469 -4.238281 C 8.882812 -4.046875 9.109375 -3.808594 9.285156 -3.519531 C 9.457031 -3.230469 9.542969 -2.890625 9.542969 -2.5 C 9.542969 -2.03125 9.445312 -1.636719 9.25 -1.3125 C 9.050781 -0.988281 8.765625 -0.734375 8.398438 -0.546875 C 8.007812 -0.347656 7.558594 -0.207031 7.046875 -0.125 C 6.539062 -0.0429688 5.9375 0 5.246094 0 L 0.449219 0 L 0.449219 -0.507812 C 0.582031 -0.519531 0.753906 -0.539062 0.957031 -0.566406 C 1.160156 -0.59375 1.304688 -0.621094 1.386719 -0.65625 C 1.546875 -0.722656 1.65625 -0.808594 1.714844 -0.914062 C 1.773438 -1.019531 1.804688 -1.160156 1.804688 -1.328125 L 1.804688 -7.839844 C 1.804688 -7.996094 1.78125 -8.125 1.730469 -8.230469 C 1.683594 -8.332031 1.570312 -8.425781 1.386719 -8.503906 C 1.253906 -8.558594 1.097656 -8.605469 0.917969 -8.640625 C 0.738281 -8.679688 0.582031 -8.707031 0.449219 -8.730469 L 0.449219 -9.238281 L 5.46875 -9.238281 C 6.730469 -9.238281 7.644531 -9.066406 8.203125 -8.71875 C 8.761719 -8.371094 9.042969 -7.859375 9.042969 -7.179688 C 9.042969 -6.867188 8.980469 -6.59375 8.855469 -6.355469 C 8.726562 -6.121094 8.546875 -5.914062 8.3125 -5.742188 C 8.101562 -5.582031 7.847656 -5.441406 7.550781 -5.324219 C 7.257812 -5.207031 6.941406 -5.109375 6.601562 -5.03125 L 6.601562 -4.910156 C 6.941406 -4.875 7.292969 -4.800781 7.65625 -4.683594 C 8.019531 -4.570312 8.335938 -4.421875 8.605469 -4.238281 M 6.511719 -7.019531 C 6.511719 -7.53125 6.367188 -7.929688 6.078125 -8.214844 C 5.789062 -8.503906 5.355469 -8.644531 4.777344 -8.644531 C 4.695312 -8.644531 4.589844 -8.640625 4.457031 -8.636719 C 4.324219 -8.628906 4.210938 -8.625 4.113281 -8.621094 L 4.113281 -5.195312 L 4.453125 -5.195312 C 5.15625 -5.195312 5.675781 -5.359375 6.007812 -5.6875 C 6.34375 -6.015625 6.511719 -6.457031 6.511719 -7.019531 M 6.964844 -2.582031 C 6.964844 -3.226562 6.773438 -3.71875 6.394531 -4.0625 C 6.011719 -4.40625 5.460938 -4.578125 4.746094 -4.578125 C 4.664062 -4.578125 4.554688 -4.574219 4.417969 -4.566406 C 4.28125 -4.5625 4.179688 -4.554688 4.113281 -4.550781 L 4.113281 -1.167969 C 4.152344 -1.003906 4.273438 -0.871094 4.480469 -0.757812 C 4.683594 -0.648438 4.929688 -0.59375 5.222656 -0.59375 C 5.738281 -0.59375 6.15625 -0.765625 6.480469 -1.113281 C 6.804688 -1.460938 6.964844 -1.949219 6.964844 -2.582031 Z "/>
</g>
</g>
</defs>
<g fill="rgb(100%, 100%, 100%)" fill-opacity="1">
<use xlink:href="#glyph-0-0" x="30" y="32.226562"/>
<use xlink:href="#glyph-0-1" x="44" y="32.226562"/>
<use xlink:href="#glyph-0-2" x="52" y="32.226562"/>
<use xlink:href="#glyph-0-3" x="61" y="32.226562"/>
<use xlink:href="#glyph-0-1" x="69" y="32.226562"/>
<use xlink:href="#glyph-0-4" x="77" y="32.226562"/>
<use xlink:href="#glyph-0-5" x="88" y="32.226562"/>
</g>
</svg>
